<svg width="90" height="51" viewBox="0 0 4411 2224" fill="none" xmlns="http://www.w3.org/2000/svg">
<path d="M1415.75 1912.5C1433.25 1912.5 1449.5 1909 1464.5 1902C1480 1895 1494.75 1884 1508.75 1869L1570.25 1932.75C1550.25 1954.75 1526.25 1972 1498.25 1984.5C1470.25 1996.5 1441.25 2002.5 1411.25 2002.5C1382.75 2002.5 1355.75 1997.25 1330.25 1986.75C1305.25 1976.25 1283.5 1962 1265 1944C1247 1926 1232.75 1904.75 1222.25 1880.25C1211.75 1855.25 1206.5 1828.5 1206.5 1800C1206.5 1771.5 1211.75 1745 1222.25 1720.5C1232.75 1695.5 1247 1674 1265 1656C1283.5 1637.5 1305.25 1623 1330.25 1612.5C1355.75 1602 1382.75 1596.75 1411.25 1596.75C1442.25 1596.75 1472 1603 1500.5 1615.5C1529 1627.5 1553.25 1644.5 1573.25 1666.5L1510.25 1733.25C1496.25 1717.75 1481.25 1706 1465.25 1698C1449.25 1690 1432 1686 1413.5 1686C1384 1686 1359 1697 1338.5 1719C1318.5 1741 1308.5 1768 1308.5 1800C1308.5 1832 1318.75 1858.75 1339.25 1880.25C1360.25 1901.75 1385.75 1912.5 1415.75 1912.5ZM1576.02 1800C1576.02 1771.5 1581.27 1745 1591.77 1720.5C1602.77 1695.5 1617.52 1674 1636.02 1656C1655.02 1637.5 1677.27 1623 1702.77 1612.5C1728.27 1602 1755.52 1596.75 1784.52 1596.75C1813.52 1596.75 1840.77 1602 1866.27 1612.5C1891.77 1623 1913.77 1637.5 1932.27 1656C1951.27 1674 1966.02 1695.5 1976.52 1720.5C1987.52 1745 1993.02 1771.5 1993.02 1800C1993.02 1828.5 1987.52 1855.25 1976.52 1880.25C1966.02 1904.75 1951.27 1926 1932.27 1944C1913.77 1962 1891.77 1976.25 1866.27 1986.75C1840.77 1997.25 1813.52 2002.5 1784.52 2002.5C1755.52 2002.5 1728.27 1997.25 1702.77 1986.75C1677.27 1976.25 1655.02 1962 1636.02 1944C1617.52 1926 1602.77 1904.75 1591.77 1880.25C1581.27 1855.25 1576.02 1828.5 1576.02 1800ZM1784.52 1913.25C1814.52 1913.25 1840.02 1902.25 1861.02 1880.25C1882.02 1858.25 1892.52 1831.5 1892.52 1800C1892.52 1768 1882.02 1741 1861.02 1719C1840.02 1697 1814.52 1686 1784.52 1686C1754.52 1686 1729.02 1697 1708.02 1719C1687.02 1741 1676.52 1768 1676.52 1800C1676.52 1831.5 1687.02 1858.25 1708.02 1880.25C1729.02 1902.25 1754.52 1913.25 1784.52 1913.25ZM2041.18 1995V1604.25H2143.93V1633.5C2157.93 1621.5 2173.43 1612.5 2190.43 1606.5C2207.43 1600 2225.93 1596.75 2245.93 1596.75C2270.93 1596.75 2293.43 1602 2313.43 1612.5C2333.93 1622.5 2350.68 1636.75 2363.68 1655.25C2379.18 1636.25 2397.93 1621.75 2419.93 1611.75C2441.93 1601.75 2466.18 1596.75 2492.68 1596.75C2536.18 1596.75 2571.93 1611.25 2599.93 1640.25C2627.93 1669.25 2641.93 1706.5 2641.93 1752V1995H2539.18V1767C2539.18 1742.5 2532.43 1722.75 2518.93 1707.75C2505.93 1692.75 2488.18 1685.25 2465.68 1685.25C2450.18 1685.25 2435.93 1688.75 2422.93 1695.75C2410.43 1702.25 2399.68 1711.75 2390.68 1724.25C2391.18 1728.75 2391.68 1733.25 2392.18 1737.75C2392.68 1742.25 2392.93 1747 2392.93 1752V1995H2290.18V1767C2290.18 1742.5 2283.43 1722.75 2269.93 1707.75C2256.93 1692.75 2239.18 1685.25 2216.68 1685.25C2201.18 1685.25 2187.43 1688.25 2175.43 1694.25C2163.43 1700.25 2152.93 1709 2143.93 1720.5V1995H2041.18ZM2705.87 1995V1604.25H2808.62V1633.5C2822.62 1621.5 2838.12 1612.5 2855.12 1606.5C2872.12 1600 2890.62 1596.75 2910.62 1596.75C2935.62 1596.75 2958.12 1602 2978.12 1612.5C2998.62 1622.5 3015.37 1636.75 3028.37 1655.25C3043.87 1636.25 3062.62 1621.75 3084.62 1611.75C3106.62 1601.75 3130.87 1596.75 3157.37 1596.75C3200.87 1596.75 3236.62 1611.25 3264.62 1640.25C3292.62 1669.25 3306.62 1706.5 3306.62 1752V1995H3203.87V1767C3203.87 1742.5 3197.12 1722.75 3183.62 1707.75C3170.62 1692.75 3152.87 1685.25 3130.37 1685.25C3114.87 1685.25 3100.62 1688.75 3087.62 1695.75C3075.12 1702.25 3064.37 1711.75 3055.37 1724.25C3055.87 1728.75 3056.37 1733.25 3056.87 1737.75C3057.37 1742.25 3057.62 1747 3057.62 1752V1995H2954.87V1767C2954.87 1742.5 2948.12 1722.75 2934.62 1707.75C2921.62 1692.75 2903.87 1685.25 2881.37 1685.25C2865.87 1685.25 2852.12 1688.25 2840.12 1694.25C2828.12 1700.25 2817.62 1709 2808.62 1720.5V1995H2705.87ZM3421.55 1557.75C3405.55 1557.75 3391.8 1552 3380.3 1540.5C3368.8 1529 3363.05 1515.25 3363.05 1499.25C3363.05 1483.25 3368.8 1469.5 3380.3 1458C3391.8 1446.5 3405.55 1440.75 3421.55 1440.75C3437.55 1440.75 3451.3 1446.5 3462.8 1458C3474.3 1469.5 3480.05 1483.25 3480.05 1499.25C3480.05 1515.25 3474.3 1529 3462.8 1540.5C3451.3 1552 3437.55 1557.75 3421.55 1557.75ZM3473.3 1604.25V1995H3370.55V1604.25H3473.3ZM3591.91 1884.75V1690.5H3511.66V1604.25H3591.91V1504.5L3694.66 1481.25V1604.25H3805.66V1690.5H3694.66V1863.75C3694.66 1882.25 3698.66 1895.25 3706.66 1902.75C3714.66 1910.25 3728.66 1914 3748.66 1914C3758.16 1914 3767.16 1913.5 3775.66 1912.5C3784.16 1911 3793.41 1908.5 3803.41 1905V1989C3792.41 1992.5 3779.16 1995.25 3763.66 1997.25C3748.16 1999.75 3734.91 2001 3723.91 2001C3680.41 2001 3647.41 1991.25 3624.91 1971.75C3602.91 1951.75 3591.91 1922.75 3591.91 1884.75ZM4028.41 1557.75C4012.41 1557.75 3998.66 1552 3987.16 1540.5C3975.66 1529 3969.91 1515.25 3969.91 1499.25C3969.91 1483.25 3975.66 1469.5 3987.16 1458C3998.66 1446.5 4012.41 1440.75 4028.41 1440.75C4044.41 1440.75 4058.16 1446.5 4069.66 1458C4081.16 1469.5 4086.91 1483.25 4086.91 1499.25C4086.91 1515.25 4081.16 1529 4069.66 1540.5C4058.16 1552 4044.41 1557.75 4028.41 1557.75ZM3953.41 2156.25C3943.91 2156.25 3934.16 2155.5 3924.16 2154C3913.66 2153 3905.41 2151.5 3899.41 2149.5V2070.75C3904.91 2071.75 3910.41 2072.5 3915.91 2073C3920.91 2073.5 3926.66 2073.75 3933.16 2073.75C3948.66 2073.75 3959.91 2070.5 3966.91 2064C3973.91 2058 3977.41 2048 3977.41 2034V1604.25H4080.16V2040C4080.16 2077 4068.91 2105.5 4046.41 2125.5C4024.41 2146 3993.41 2156.25 3953.41 2156.25ZM4145.52 1995V1604.25H4248.27V1647C4260.77 1630 4275.77 1617.25 4293.27 1608.75C4311.27 1599.75 4331.02 1595.25 4352.52 1595.25C4362.52 1595.75 4370.77 1596.75 4377.27 1598.25C4384.27 1599.25 4390.27 1601.25 4395.27 1604.25V1694.25C4387.77 1690.75 4379.52 1688.25 4370.52 1686.75C4361.52 1684.75 4352.27 1683.75 4342.77 1683.75C4322.77 1683.75 4304.27 1688.75 4287.27 1698.75C4270.77 1708.75 4257.77 1723.25 4248.27 1742.25V1995H4145.52Z" fill="white"/>
<g clip-path="url(#clip0)">
<path d="M843.513 898.659C893.864 935.189 947.966 952.154 1011.44 961.735C1454.79 1011.8 1394.29 1174.71 1355.89 1366.42C1550.16 1085.98 1622.82 882.036 1595.42 707.749C1565.84 519.612 1433.48 382.736 1392.21 306.194C1391.55 306.521 1390.77 306.948 1390.1 307.281C1387.4 308.909 1384.75 310.509 1382 312.167C1361.21 324.689 1338.98 338.081 1315.72 352.693C1304.09 359.998 1292.2 367.608 1280.11 375.566C1268.02 383.524 1255.73 391.831 1243.28 400.528C1230.84 409.226 1218.24 418.315 1205.55 427.838C1192.86 437.361 1180.07 447.319 1167.23 457.755C1160.81 462.973 1154.38 468.31 1147.95 473.772C1141.51 479.235 1135.07 484.822 1128.64 490.539C1122.2 496.257 1115.76 502.106 1109.34 508.09C1102.91 514.073 1096.49 520.192 1090.09 526.453C1083.68 532.714 1077.3 539.115 1070.93 545.663C1064.56 552.212 1058.22 558.908 1051.9 565.755C1045.58 572.602 1039.29 579.6 1033.04 586.757C1026.79 593.913 1020.57 601.227 1014.39 608.704C1008.21 616.18 1002.07 623.821 995.985 631.629C989.896 639.437 983.856 647.413 977.87 655.563C971.884 663.712 965.952 672.036 960.081 680.539C954.211 689.041 948.401 697.723 942.659 706.589C936.917 715.455 931.245 724.507 925.646 733.747C920.046 742.988 914.52 752.418 909.076 762.044C903.632 771.67 898.268 781.492 892.993 791.514C887.717 801.536 882.528 811.759 877.434 822.188C872.339 832.617 867.338 843.253 862.438 854.1C857.539 864.947 852.74 876.005 848.049 887.281C846.501 891.001 845.038 894.891 843.513 898.659Z" fill="white"/>
<path d="M829.851 933.977C826.942 941.772 824.031 949.565 821.239 957.583C818.862 964.409 816.635 971.189 814.549 977.918C812.462 984.646 810.517 991.324 808.707 997.947C806.897 1004.57 805.22 1011.14 803.672 1017.65C802.124 1024.16 800.704 1030.62 799.405 1037.01C798.105 1043.4 796.928 1049.73 795.863 1056C794.798 1062.26 793.846 1068.46 793.002 1074.59C792.157 1080.72 791.421 1086.78 790.783 1092.76C790.145 1098.75 789.606 1104.66 789.161 1110.5C788.716 1116.34 788.364 1122.1 788.098 1127.78C787.831 1133.46 787.65 1139.06 787.548 1144.57C787.448 1149.96 787.639 1155 787.683 1160.22C883.828 1160.96 1063.18 1158.6 1238.27 1046.23C1235.02 1044.59 1231.48 1042.95 1227.46 1041.29C1223.1 1039.49 1218.42 1037.72 1213.44 1036C1208.46 1034.28 1203.19 1032.61 1197.66 1030.97C1192.14 1029.33 1186.36 1027.74 1180.36 1026.18C1174.37 1024.63 1168.16 1023.12 1161.77 1021.65C1149.03 1018.73 1135.76 1016.02 1122.31 1013.51C1108.86 1011 1095.24 1008.7 1081.81 1006.59C1068.38 1004.49 1055.15 1002.58 1042.48 1000.87C1029.8 999.152 1017.69 997.631 1006.5 996.297C1000.37 995.567 994.464 994.778 988.764 993.934C983.065 993.089 977.574 992.192 972.281 991.245C961.697 989.351 951.905 987.264 942.815 985.025C933.726 982.786 925.339 980.397 917.568 977.9C909.797 975.403 902.64 972.799 896.01 970.131C889.379 967.464 883.276 964.733 877.609 961.982C871.942 959.231 866.711 956.459 861.831 953.711C856.95 950.963 852.419 948.239 848.147 945.582C843.875 942.925 839.864 940.336 836.024 937.857C833.866 936.463 831.917 935.293 829.851 933.977Z" fill="white"/>
<path d="M828.931 1.06619e-10C488.092 0.000225416 302.54 156.398 207.422 267.323L402.509 267.325C439.454 267.325 469.671 297.737 470.638 335.892L471.893 385.447C472.328 402.59 485.904 416.253 502.502 416.253H584.601C584.565 414.751 584.545 413.246 584.545 411.735C584.545 312.267 662.597 231.633 758.881 231.633C855.163 231.633 933.216 312.267 933.216 411.735C933.216 511.202 855.163 591.837 758.881 591.837C677.046 591.837 608.394 533.582 589.629 455.028H502.504C465.557 455.028 435.34 424.618 434.373 386.464L433.117 336.906C432.683 319.764 419.108 306.101 402.509 306.101L176.092 306.099C166.328 318.891 157.993 330.462 150.972 340.308C134.011 364.096 110.981 400.66 88.0602 447.449H268.434C275.446 429.238 292.434 416.152 312.6 415.607C339.594 414.876 362.05 436.891 362.757 464.778C363.463 492.664 342.152 515.861 315.158 516.592C294.636 517.146 276.748 504.548 269.036 486.224H70.2153C42.1516 551.234 16.8075 631.273 6.22864 721.448L79.4753 721.785C96.3861 721.864 110.157 707.764 110.232 690.294L110.435 643.13C110.602 604.368 141.066 573.035 178.588 573.035L443.49 573.037C449.966 553.73 467.477 539.642 488.417 539.076C515.411 538.346 537.867 560.361 538.573 588.247C539.279 616.133 517.969 639.33 490.975 640.061C471.254 640.594 453.968 628.979 445.803 611.812L178.588 611.81C161.731 611.81 148.044 625.888 147.969 643.304L147.766 690.468C147.598 729.352 116.947 760.734 79.3075 760.561L2.6481 760.208C-7.9634 920.203 30.2936 1108.24 179.078 1299.49C385.471 1564.8 761.271 1637.24 924.247 2000C993.617 1656.86 795.669 1484.53 761.811 1275.99C761.134 1272.61 760.417 1269.5 759.772 1265.95C758.244 1257.53 756.817 1248.64 755.549 1239.3C754.281 1229.95 753.17 1220.15 752.279 1209.94C751.388 1199.72 750.715 1189.07 750.319 1178.05C749.923 1167.02 749.804 1155.6 750.022 1143.82C750.131 1137.93 750.324 1131.95 750.608 1125.89C750.893 1119.83 751.268 1113.68 751.743 1107.46C752.218 1101.23 752.793 1094.92 753.473 1088.53C754.153 1082.14 754.94 1075.68 755.84 1069.14C756.74 1062.61 757.753 1056 758.888 1049.32C760.023 1042.64 761.279 1035.89 762.664 1029.08C764.048 1022.26 765.562 1015.39 767.211 1008.45C768.86 1001.51 770.646 994.509 772.574 987.452C774.502 980.395 776.573 973.28 778.795 966.113C781.018 958.947 783.391 951.728 785.922 944.459C790.303 931.876 794.811 919.527 799.438 907.408C804.064 895.289 808.808 883.401 813.665 871.735C818.522 860.07 823.491 848.629 828.564 837.406C833.637 826.184 838.814 815.18 844.09 804.389C849.366 793.598 854.74 783.018 860.204 772.648C865.669 762.278 871.224 752.116 876.863 742.156C882.501 732.195 888.222 722.436 894.021 712.875C899.819 703.313 905.695 693.949 911.64 684.776C917.585 675.602 923.599 666.619 929.676 657.822C935.753 649.026 941.891 640.414 948.086 631.983C954.281 623.553 960.533 615.302 966.831 607.227C973.13 599.151 979.476 591.25 985.865 583.518C992.253 575.786 998.684 568.224 1005.15 560.826C1011.61 553.427 1018.11 546.193 1024.64 539.116C1031.16 532.04 1037.72 525.121 1044.29 518.355C1050.87 511.59 1057.46 504.978 1064.07 498.513C1070.67 492.048 1077.29 485.732 1083.92 479.556C1090.55 473.38 1097.18 467.347 1103.81 461.45C1110.44 455.553 1117.08 449.79 1123.7 444.161C1130.32 438.531 1136.94 433.034 1143.54 427.661C1156.74 416.914 1169.88 406.669 1182.91 396.883C1195.94 387.097 1208.85 377.767 1221.58 368.854C1234.32 359.94 1246.89 351.442 1259.23 343.314C1271.56 335.185 1283.67 327.427 1295.5 319.996C1307.32 312.564 1318.86 305.46 1330.06 298.639C1341.26 291.817 1352.12 285.279 1362.58 278.98C1365.96 276.941 1369.22 274.974 1372.53 272.983C1282.42 141.221 1043.17 -0.000141689 828.931 1.06619e-10Z" fill="white"/>
<path d="M759.5 547C832.678 547 892 486.558 892 412C892 337.442 832.678 277 759.5 277C686.322 277 627 337.442 627 412C627 486.558 686.322 547 759.5 547Z" fill="white"/>
<line x1="1208" y1="1824.47" x2="937.996" y2="1824.47" stroke="black"/>
</g>
<defs>
<clipPath id="clip0">
<rect width="1600" height="2000" fill="white"/>
</clipPath>
</defs>
</svg>
