<?xml version="1.0" encoding="iso-8859-1"?>
<!-- Generator: Adobe Illustrator 19.0.0, SVG Export Plug-In . SVG Version: 6.00 Build 0)  -->
<svg version="1.1" id="Capa_1" xmlns="http://www.w3.org/2000/svg" xmlns:xlink="http://www.w3.org/1999/xlink" x="20px" y="20px" width="200px" height="200px"
	 viewBox="0 0 512 512" style="enable-background:new 0 0 512 512;" xml:space="preserve">
<g>
	<g transform="translate(1 1)">
		<g>
			<path style="fill:#A4C2F7;" d="M24.6,7.533h460.8c9.426,0,17.067,7.641,17.067,17.067v460.8c0,9.426-7.641,17.067-17.067,17.067
				H24.6c-9.426,0-17.067-7.641-17.067-17.067V24.6C7.533,15.174,15.174,7.533,24.6,7.533z"/>
			<path style="fill:#A4C2F7;" d="M502.467,24.6v51.2H7.533V24.6C7.561,15.186,15.186,7.561,24.6,7.533h460.8
				C494.814,7.561,502.439,15.186,502.467,24.6z"/>
		</g>
		<path style="fill:#D4E1F4;" d="M24.6,7.533h435.2c9.426,0,17.067,7.641,17.067,17.067v460.8c0,9.426-7.641,17.067-17.067,17.067
			H24.6c-9.426,0-17.067-7.641-17.067-17.067V24.6C7.533,15.174,15.174,7.533,24.6,7.533z"/>
		<g>
			<path style="fill:#E3E7F2;" d="M476.867,24.6v51.2H7.533V24.6C7.561,15.186,15.186,7.561,24.6,7.533h435.2
				C469.214,7.561,476.839,15.186,476.867,24.6z"/>
			<path style="fill:#E3E7F2;" d="M161.133,109.933v162.133H50.2c-4.707-0.014-8.519-3.826-8.533-8.533V118.467
				c0.014-4.707,3.826-8.519,8.533-8.533H161.133z"/>
		</g>
		<path style="fill:#7FABFA;" d="M468.333,118.467v145.067c-0.014,4.707-3.826,8.519-8.533,8.533H161.133V109.933H459.8
			C464.507,109.947,468.319,113.76,468.333,118.467z"/>
		<path style="fill:#E3E7F2;" d="M161.133,306.2v162.133H50.2c-4.707-0.014-8.519-3.826-8.533-8.533V314.733
			c0.014-4.707,3.826-8.519,8.533-8.533H161.133z"/>
		<path style="fill:#7FABFA;" d="M468.333,314.733V459.8c-0.014,4.707-3.826,8.519-8.533,8.533H161.133V306.2H459.8
			C464.507,306.214,468.319,310.026,468.333,314.733z"/>
		<g>
			<path style="fill:#E3E7F2;" d="M442.733,118.467v145.067c-0.014,4.707-3.826,8.519-8.533,8.533H161.133V109.933H434.2
				C438.907,109.947,442.719,113.76,442.733,118.467z"/>
			<path style="fill:#E3E7F2;" d="M442.733,314.733V459.8c-0.014,4.707-3.826,8.519-8.533,8.533H161.133V306.2H434.2
				C438.907,306.214,442.719,310.026,442.733,314.733z"/>
		</g>
		<path style="fill:#FFFFFF;" d="M24.6,502.467h25.6c-9.414-0.028-17.039-7.653-17.067-17.067V24.6
			C33.161,15.186,40.786,7.561,50.2,7.533H24.6C15.186,7.561,7.561,15.186,7.533,24.6v460.8
			C7.561,494.814,15.186,502.439,24.6,502.467z"/>
	</g>
	<g>
		<polygon style="fill:#FFFFFF;" points="17.067,76.8 17.067,187.733 17.067,486.4 0,486.4 0,187.733 0,76.8 		"/>
		<g>
			<path style="fill:#428DFF;" d="M8.533,153.6c2.259-0.034,4.422-0.918,6.059-2.475c3.3-3.365,3.3-8.752,0-12.117l-1.279-1.025
				c-0.476-0.324-0.993-0.583-1.538-0.771c-0.484-0.246-1.003-0.417-1.538-0.509c-0.563-0.096-1.133-0.153-1.704-0.171
				c-2.259,0.031-4.423,0.915-6.059,2.475c-3.222,3.397-3.222,8.721,0,12.117c0.815,0.771,1.77,1.379,2.813,1.792
				C6.314,153.355,7.417,153.587,8.533,153.6z"/>
			<path style="fill:#428DFF;" d="M486.4,0H25.6C11.468,0.015,0.015,11.468,0,25.6v85.333c0,4.713,3.821,8.533,8.533,8.533
				s8.533-3.821,8.533-8.533v-25.6h477.867V486.4c-0.003,4.712-3.822,8.53-8.533,8.533H25.6c-4.712-0.003-8.53-3.822-8.533-8.533
				V179.2c0-4.713-3.821-8.533-8.533-8.533S0,174.487,0,179.2v307.2c0.015,14.132,11.468,25.585,25.6,25.6h460.8
				c14.132-0.015,25.585-11.468,25.6-25.6V25.6C511.985,11.468,500.532,0.015,486.4,0z M17.067,68.267V25.6
				c0.003-4.712,3.822-8.53,8.533-8.533h460.8c4.712,0.003,8.53,3.822,8.533,8.533v42.667H17.067z"/>
			<path style="fill:#428DFF;" d="M68.267,34.133H51.2c-4.713,0-8.533,3.821-8.533,8.533S46.487,51.2,51.2,51.2h17.067
				c4.713,0,8.533-3.821,8.533-8.533S72.98,34.133,68.267,34.133z"/>
			<path style="fill:#428DFF;" d="M460.8,34.133h-17.067c-4.713,0-8.533,3.821-8.533,8.533s3.821,8.533,8.533,8.533H460.8
				c4.713,0,8.533-3.821,8.533-8.533S465.513,34.133,460.8,34.133z"/>
			<path style="fill:#428DFF;" d="M375.467,34.133H136.533c-4.713,0-8.533,3.821-8.533,8.533s3.821,8.533,8.533,8.533h238.933
				c4.713,0,8.533-3.821,8.533-8.533S380.18,34.133,375.467,34.133z"/>
			<path style="fill:#428DFF;" d="M102.4,136.533c-18.844,0.019-34.115,15.29-34.133,34.133c0,4.713,3.821,8.533,8.533,8.533
				c4.713,0,8.533-3.821,8.533-8.533c0-9.426,7.641-17.067,17.067-17.067s17.067,7.641,17.067,17.067
				c0,9.426-7.641,17.067-17.067,17.067c-2.264-0.001-4.435,0.897-6.035,2.498c-1.601,1.601-2.499,3.772-2.498,6.035v8.533
				c0,4.713,3.821,8.533,8.533,8.533c4.713,0,8.533-3.821,8.533-8.533v-1.084c16.643-4.297,27.494-20.299,25.328-37.351
				S119.589,136.533,102.4,136.533z"/>
			<path style="fill:#428DFF;" d="M51.2,281.6h409.6c9.421-0.012,17.054-7.646,17.067-17.067V119.467
				c-0.012-9.421-7.646-17.054-17.067-17.067H51.2c-9.421,0.012-17.054,7.646-17.067,17.067v145.067
				C34.146,273.954,41.779,281.588,51.2,281.6z M460.817,264.533h-290.15V119.467H460.8L460.817,264.533z M51.2,119.467h102.4
				v145.067H51.2V119.467z"/>
			<path style="fill:#428DFF;" d="M34.133,460.8c0.012,9.421,7.646,17.054,17.067,17.067h409.6
				c9.421-0.012,17.054-7.646,17.067-17.067V315.733c-0.012-9.421-7.646-17.054-17.067-17.067H51.2
				c-9.421,0.012-17.054,7.646-17.067,17.067V460.8z M460.817,460.8h-290.15V315.733H460.8L460.817,460.8z M51.2,315.733h102.4
				V460.8H51.2V315.733z"/>
			<path style="fill:#428DFF;" d="M118.867,345.383c-2.048-7.536-8.952-12.718-16.76-12.581
				c-7.808,0.138-14.525,5.561-16.306,13.164l-17.367,87.575c-0.916,4.621,2.088,9.109,6.708,10.025
				c4.621,0.916,9.109-2.087,10.025-6.708l5.322-27.258h23.739l5.406,27.258c0.787,3.993,4.288,6.873,8.358,6.875
				c0.56,0.002,1.118-0.054,1.667-0.167c2.22-0.438,4.174-1.741,5.432-3.622c1.258-1.88,1.717-4.184,1.276-6.403L118.867,345.383z
				 M93.822,392.533l8.445-43.25l8.577,43.25H93.822z"/>
			<path style="fill:#428DFF;" d="M196.267,162.133h25.6c4.713,0,8.533-3.821,8.533-8.533s-3.821-8.533-8.533-8.533h-25.6
				c-4.713,0-8.533,3.82-8.533,8.533S191.554,162.133,196.267,162.133z"/>
			<path style="fill:#428DFF;" d="M196.267,204.8h119.467c4.713,0,8.533-3.821,8.533-8.533s-3.821-8.533-8.533-8.533H196.267
				c-4.713,0-8.533,3.821-8.533,8.533S191.554,204.8,196.267,204.8z"/>
			<path style="fill:#428DFF;" d="M349.867,204.8h42.667c4.713,0,8.533-3.821,8.533-8.533s-3.82-8.533-8.533-8.533h-42.667
				c-4.713,0-8.533,3.821-8.533,8.533S345.154,204.8,349.867,204.8z"/>
			<path style="fill:#428DFF;" d="M426.667,204.8h8.533c4.713,0,8.533-3.821,8.533-8.533s-3.821-8.533-8.533-8.533h-8.533
				c-4.713,0-8.533,3.821-8.533,8.533S421.954,204.8,426.667,204.8z"/>
			<path style="fill:#428DFF;" d="M273.067,221.867h-76.8c-4.713,0-8.533,3.82-8.533,8.533s3.821,8.533,8.533,8.533h76.8
				c4.713,0,8.533-3.821,8.533-8.533S277.78,221.867,273.067,221.867z"/>
			<path style="fill:#428DFF;" d="M366.933,221.867H307.2c-4.713,0-8.533,3.82-8.533,8.533s3.82,8.533,8.533,8.533h59.733
				c4.713,0,8.533-3.821,8.533-8.533S371.646,221.867,366.933,221.867z"/>
			<path style="fill:#428DFF;" d="M435.2,221.867h-34.133c-4.713,0-8.533,3.82-8.533,8.533s3.82,8.533,8.533,8.533H435.2
				c4.713,0,8.533-3.821,8.533-8.533S439.913,221.867,435.2,221.867z"/>
			<path style="fill:#428DFF;" d="M196.267,358.4h25.6c4.713,0,8.533-3.821,8.533-8.533c0-4.713-3.821-8.533-8.533-8.533h-25.6
				c-4.713,0-8.533,3.821-8.533,8.533C187.733,354.579,191.554,358.4,196.267,358.4z"/>
			<path style="fill:#428DFF;" d="M196.267,401.067h68.267c4.713,0,8.533-3.82,8.533-8.533s-3.82-8.533-8.533-8.533h-68.267
				c-4.713,0-8.533,3.82-8.533,8.533S191.554,401.067,196.267,401.067z"/>
			<path style="fill:#428DFF;" d="M298.667,401.067h68.267c4.713,0,8.533-3.82,8.533-8.533s-3.82-8.533-8.533-8.533h-68.267
				c-4.713,0-8.533,3.82-8.533,8.533S293.954,401.067,298.667,401.067z"/>
			<path style="fill:#428DFF;" d="M401.067,401.067H435.2c4.713,0,8.533-3.82,8.533-8.533S439.913,384,435.2,384h-34.133
				c-4.713,0-8.533,3.82-8.533,8.533S396.354,401.067,401.067,401.067z"/>
			<path style="fill:#428DFF;" d="M187.733,426.667c-0.001,2.264,0.897,4.435,2.498,6.035c1.601,1.601,3.772,2.499,6.035,2.498
				h93.867c4.713,0,8.533-3.82,8.533-8.533s-3.821-8.533-8.533-8.533h-93.867c-2.264-0.001-4.435,0.897-6.035,2.498
				C188.631,422.232,187.732,424.403,187.733,426.667z"/>
			<path style="fill:#428DFF;" d="M332.8,418.133h-8.533c-4.713,0-8.533,3.82-8.533,8.533s3.821,8.533,8.533,8.533h8.533
				c4.713,0,8.533-3.82,8.533-8.533S337.513,418.133,332.8,418.133z"/>
			<path style="fill:#428DFF;" d="M401.067,418.133h-34.133c-4.713,0-8.533,3.82-8.533,8.533s3.82,8.533,8.533,8.533h34.133
				c4.713,0,8.533-3.82,8.533-8.533S405.78,418.133,401.067,418.133z"/>
			<path style="fill:#428DFF;" d="M108.459,232.875c-2.451-2.425-6.123-3.133-9.3-1.792c-1.045,0.412-2.001,1.02-2.817,1.792
				c-0.754,0.829-1.36,1.782-1.792,2.817c-0.48,1.012-0.715,2.123-0.683,3.242c-0.03,2.855,1.385,5.532,3.761,7.115
				c2.376,1.584,5.39,1.86,8.014,0.735c1.034-0.434,1.986-1.04,2.817-1.792c2.444-2.441,3.154-6.125,1.792-9.3
				C109.819,234.657,109.213,233.704,108.459,232.875z"/>
			<path style="fill:#428DFF;" d="M441.175,420.608c-3.389-3.159-8.644-3.159-12.033,0c-0.754,0.829-1.36,1.782-1.792,2.817
				c-0.911,2.065-0.911,4.418,0,6.483c0.434,1.034,1.04,1.986,1.792,2.817c3.351,3.253,8.682,3.253,12.033,0
				c1.658-1.576,2.585-3.771,2.558-6.058c-0.014-1.115-0.246-2.216-0.683-3.242C442.639,422.36,441.999,421.398,441.175,420.608z"/>
		</g>
	</g>
</g>
<g>
</g>
<g>
</g>
<g>
</g>
<g>
</g>
<g>
</g>
<g>
</g>
<g>
</g>
<g>
</g>
<g>
</g>
<g>
</g>
<g>
</g>
<g>
</g>
<g>
</g>
<g>
</g>
<g>
</g>
</svg>
